<svg width="366" height="101" viewBox="0 0 366 101" fill="none" xmlns="http://www.w3.org/2000/svg">
<path d="M358.849 70.674H358.149V66.992H356.889V66.392H360.108V66.992H358.849V70.674Z" fill="white"/>
<path d="M362.916 70.674L361.674 67.1H361.651C361.684 67.6333 361.701 68.1313 361.701 68.594V70.677H361.065V66.391H362.052L363.242 69.798H363.259L364.484 66.391H365.474V70.674H364.799V68.556C364.799 68.343 364.805 68.066 364.815 67.724C364.825 67.382 364.835 67.175 364.843 67.103H364.82L363.534 70.674H362.916Z" fill="white"/>
<path d="M50.027 97.669C40.6044 97.6688 31.3934 94.8745 23.5588 89.6394C15.7242 84.4043 9.61801 76.9636 6.01225 68.2581C2.4065 59.5527 1.46317 49.9735 3.30156 40.7319C5.13995 31.4903 9.67749 23.0014 16.3404 16.3387C23.0033 9.67591 31.4923 5.13855 40.7339 3.30036C49.9755 1.46216 59.5547 2.40569 68.26 6.01163C76.9654 9.61757 84.406 15.724 89.641 23.5586C94.8759 31.3933 97.67 40.6043 97.67 50.027C97.67 56.2835 96.4377 62.4788 94.0434 68.259C91.6491 74.0393 88.1397 79.2914 83.7156 83.7153C79.2916 88.1393 74.0394 91.6486 68.2591 94.0428C62.4788 96.4369 56.2835 97.6691 50.027 97.669V97.669Z" fill="#85EA2D"/>
<path d="M50.027 4.769C58.9782 4.769 67.7284 7.42334 75.171 12.3963C82.6137 17.3694 88.4145 24.4377 91.84 32.7075C95.2654 40.9773 96.1617 50.0772 94.4154 58.8564C92.6691 67.6356 88.3587 75.6998 82.0293 82.0292C75.6998 88.3587 67.6356 92.6691 58.8564 94.4154C50.0772 96.1617 40.9774 95.2654 32.7075 91.8399C24.4377 88.4145 17.3694 82.6136 12.3964 75.171C7.42336 67.7284 4.76902 58.9782 4.76902 50.027C4.76902 38.0238 9.53726 26.5123 18.0248 18.0248C26.5123 9.53724 38.0239 4.769 50.027 4.769V4.769ZM50.027 0C40.1326 0 30.4604 2.93403 22.2335 8.43107C14.0066 13.9281 7.59453 21.7413 3.8081 30.8825C0.0216758 40.0237 -0.969025 50.0825 0.961277 59.7868C2.89158 69.4911 7.65619 78.405 14.6526 85.4014C21.649 92.3978 30.563 97.1624 40.2672 99.0927C49.9715 101.023 60.0303 100.032 69.1715 96.2459C78.3128 92.4595 86.1259 86.0474 91.6229 77.8205C97.12 69.5936 100.054 59.9214 100.054 50.027C100.054 36.759 94.7833 24.0345 85.4015 14.6526C76.0196 5.27069 63.295 0 50.027 0V0Z" fill="#85EA2D"/>
<path d="M31.499 33.854C31.345 35.566 31.557 37.336 31.442 39.067C31.3161 40.7982 31.0847 42.52 30.749 44.223C30.1876 46.6231 28.7181 48.7123 26.649 50.052C30.728 52.706 31.189 56.823 31.459 60.998C31.594 63.248 31.536 65.518 31.767 67.75C31.94 69.481 32.613 69.924 34.403 69.981C35.133 70.001 35.883 69.981 36.73 69.981V75.33C31.44 76.23 27.073 74.73 25.996 70.251C25.6415 68.605 25.4228 66.9327 25.342 65.251C25.225 63.462 25.418 61.673 25.284 59.884C24.898 54.978 24.264 53.324 19.571 53.093V46.993C19.9101 46.9159 20.2534 46.8582 20.599 46.82C23.176 46.685 24.273 45.896 24.83 43.357C25.0975 41.9279 25.2583 40.4809 25.311 39.028C25.367 36.2176 25.5672 33.4119 25.911 30.622C26.584 26.64 29.047 24.716 33.145 24.485C34.299 24.428 35.472 24.485 36.8 24.485V29.949C36.242 29.987 35.761 30.064 35.261 30.064C31.925 29.949 31.751 31.084 31.499 33.854ZM37.905 46.512H37.828C37.3638 46.4837 36.8986 46.5478 36.4594 46.7005C36.0201 46.8533 35.6156 47.0917 35.2691 47.4019C34.9227 47.7122 34.6412 48.0881 34.4411 48.5079C34.241 48.9276 34.1262 49.383 34.1033 49.8475C34.0804 50.3119 34.1499 50.7764 34.3078 51.2138C34.4656 51.6512 34.7088 52.053 35.023 52.3958C35.3373 52.7386 35.7165 53.0156 36.1386 53.2108C36.5607 53.406 37.0173 53.5155 37.482 53.533H37.713C38.6287 53.586 39.5279 53.2734 40.2132 52.6638C40.8986 52.0542 41.3139 51.1976 41.368 50.282V50.09C41.3827 49.1568 41.0265 48.2559 40.3776 47.5851C39.7288 46.9142 38.8402 46.5283 37.907 46.512H37.905ZM49.967 46.512C49.0745 46.4826 48.2067 46.8083 47.554 47.4177C46.9012 48.0271 46.5168 48.8705 46.485 49.763C46.4817 49.8724 46.4884 49.9818 46.505 50.09C46.4829 50.5596 46.5614 51.0286 46.7353 51.4654C46.9092 51.9023 47.1744 52.2969 47.5132 52.6229C47.852 52.9489 48.2565 53.1988 48.6997 53.3557C49.1429 53.5127 49.6146 53.5731 50.083 53.533C50.5524 53.5609 51.0223 53.4871 51.4605 53.3165C51.8986 53.146 52.2948 52.8827 52.6218 52.5448C52.9488 52.2069 53.1988 51.8023 53.3549 51.3588C53.511 50.9152 53.5694 50.4432 53.526 49.975C53.5494 49.5059 53.4726 49.0373 53.3009 48.6002C53.1291 48.1632 52.8662 47.7677 52.5297 47.4401C52.1932 47.1125 51.7908 46.8603 51.3493 46.7003C50.9078 46.5402 50.4373 46.4761 49.969 46.512H49.967ZM62.318 46.512C61.3733 46.495 60.4599 46.8509 59.7757 47.5027C59.0916 48.1544 58.6918 49.0495 58.663 49.994C58.6617 50.4589 58.7522 50.9194 58.9294 51.3492C59.1066 51.7789 59.367 52.1695 59.6956 52.4983C60.0241 52.8272 60.4144 53.0879 60.8441 53.2654C61.2737 53.443 61.7341 53.5339 62.199 53.533H62.238C64.007 53.842 65.797 52.133 65.912 50.071C65.9104 49.6006 65.816 49.1352 65.634 48.7014C65.452 48.2676 65.1861 47.8741 64.8516 47.5434C64.5171 47.2127 64.1205 46.9513 63.6847 46.7743C63.2489 46.5973 62.7824 46.5082 62.312 46.512H62.318ZM79.266 46.8C77.034 46.7 75.918 45.954 75.366 43.838C75.02 42.4833 74.8074 41.0981 74.731 39.702C74.577 37.124 74.596 34.527 74.423 31.949C74.023 25.832 69.595 23.697 63.169 24.754V30.064C64.188 30.064 64.977 30.064 65.769 30.083C67.135 30.102 68.169 30.622 68.308 32.142C68.443 33.527 68.443 34.931 68.578 36.335C68.847 39.125 69 41.953 69.478 44.704C70.0292 46.9337 71.4383 48.8557 73.399 50.052C69.999 52.341 68.993 55.611 68.821 59.286C68.721 61.806 68.667 64.345 68.532 66.886C68.417 69.194 67.609 69.944 65.281 70.002C64.627 70.021 63.992 70.079 63.262 70.117V75.562C64.627 75.562 65.878 75.639 67.128 75.562C71.014 75.331 73.361 73.445 74.128 69.675C74.4526 67.5977 74.6433 65.5017 74.699 63.4C74.834 61.477 74.815 59.534 75.007 57.629C75.296 54.647 76.662 53.416 79.643 53.229C79.925 53.1943 80.2025 53.1299 80.471 53.037V46.937C79.971 46.879 79.628 46.822 79.263 46.802L79.266 46.8Z" fill="#173647"/>
<path d="M151.972 58.122C152.055 59.9298 151.699 61.7309 150.936 63.3718C150.173 65.0127 149.024 66.4448 147.588 67.546C144.666 69.8007 140.699 70.928 135.688 70.928C130.261 70.928 126.087 70.228 123.164 68.828V63.7C125.144 64.5248 127.199 65.1542 129.301 65.579C131.463 66.0329 133.667 66.2638 135.876 66.268C139.424 66.268 142.096 65.5947 143.891 64.248C144.766 63.6038 145.469 62.7543 145.939 61.7742C146.408 60.7942 146.63 59.7137 146.583 58.628C146.64 57.264 146.309 55.9117 145.629 54.728C144.806 53.5502 143.71 52.5894 142.435 51.928C140.25 50.7707 137.972 49.797 135.625 49.017C131.367 47.493 128.325 45.6873 126.499 43.6C124.601 41.3114 123.624 38.3979 123.759 35.428C123.702 33.8077 124.033 32.1972 124.726 30.731C125.418 29.2649 126.451 27.9856 127.738 27C130.389 24.9127 133.896 23.869 138.258 23.869C142.571 23.8197 146.848 24.6712 150.813 26.369L149.154 31C145.676 29.4776 141.929 28.6683 138.133 28.62C135.791 28.4826 133.469 29.1208 131.527 30.436C130.751 31.02 130.129 31.7842 129.714 32.6624C129.3 33.5407 129.105 34.5067 129.147 35.477C129.092 36.8314 129.394 38.1765 130.024 39.377C130.762 40.5381 131.78 41.4959 132.983 42.163C135.013 43.296 137.146 44.2336 139.354 44.963C144.154 46.6737 147.457 48.5103 149.264 50.473C151.123 52.5759 152.094 55.3179 151.972 58.122V58.122Z" fill="white"/>
<path d="M184.987 70.3L178.699 50.17C178.303 48.938 177.562 46.141 176.477 41.779H176.226C175.391 45.4317 174.661 48.2493 174.034 50.232L167.548 70.3H161.537L152.176 35.985H157.623C159.835 44.6057 161.521 51.17 162.68 55.678C163.519 58.6738 164.183 61.716 164.668 64.789H164.918C165.148 63.599 165.519 62.0597 166.03 60.171C166.541 58.2823 166.985 56.7847 167.36 55.678L173.654 35.985H179.289L185.426 55.678C186.431 58.6343 187.226 61.6578 187.805 64.726H188.056C188.218 63.5565 188.443 62.3965 188.729 61.251C189.094 59.6863 191.27 51.2643 195.257 35.985H200.642L191.155 70.3H184.987Z" fill="white"/>
<path d="M224.814 70.3L223.781 65.415H223.531C222.192 67.2537 220.438 68.7503 218.412 69.783C216.391 70.6051 214.221 70.9945 212.04 70.926C208.64 70.926 205.973 70.0493 204.04 68.296C202.107 66.5427 201.14 64.0483 201.14 60.813C201.14 53.8797 206.682 50.2463 217.766 49.913L223.589 49.725V47.6C223.589 44.908 223.01 42.92 221.851 41.636C220.692 40.352 218.842 39.711 216.299 39.713C212.907 39.8507 209.59 40.7496 206.593 42.343L204.993 38.366C206.75 37.4219 208.616 36.6965 210.55 36.206C212.528 35.6886 214.564 35.4255 216.608 35.423C220.699 35.423 223.732 36.331 225.708 38.147C227.684 39.963 228.67 42.8747 228.667 46.882V70.3H224.814ZM213.073 66.637C214.457 66.7163 215.842 66.5222 217.151 66.0657C218.459 65.6093 219.665 64.8996 220.699 63.977C221.653 62.9959 222.393 61.8266 222.87 60.5436C223.347 59.2607 223.551 57.8924 223.47 56.526V53.426L218.27 53.645C214.137 53.791 211.157 54.433 209.331 55.571C208.436 56.1238 207.708 56.9096 207.226 57.8443C206.743 58.7789 206.524 59.8272 206.591 60.877C206.537 61.6741 206.663 62.4731 206.958 63.2155C207.254 63.9578 207.711 64.6246 208.298 65.167C209.658 66.2216 211.355 66.7449 213.073 66.639V66.637Z" fill="white"/>
<path d="M264.299 35.987V39.274L257.943 40.026C259.433 41.9985 260.226 44.41 260.198 46.882C260.261 48.3953 259.984 49.9035 259.388 51.2959C258.792 52.6883 257.892 53.9297 256.754 54.929C254.458 56.929 251.306 57.929 247.298 57.929C246.332 57.9342 245.368 57.8505 244.418 57.679C242.205 58.8517 241.099 60.3253 241.099 62.1C241.077 62.5209 241.174 62.9395 241.379 63.3077C241.584 63.676 241.889 63.979 242.258 64.182C243.51 64.7237 244.874 64.9546 246.234 64.855H252.308C256.023 64.855 258.878 65.6377 260.871 67.203C261.876 68.0214 262.671 69.0673 263.191 70.2542C263.711 71.441 263.94 72.7347 263.861 74.028C263.936 75.7511 263.553 77.4634 262.75 78.9898C261.947 80.5162 260.753 81.8021 259.29 82.716C256.242 84.7087 251.796 85.7053 245.952 85.706C241.464 85.706 238.004 84.8727 235.573 83.206C234.406 82.4412 233.458 81.3877 232.819 80.1478C232.18 78.9079 231.872 77.5238 231.926 76.13C231.89 74.1374 232.604 72.204 233.926 70.713C235.422 69.0995 237.398 68.0122 239.562 67.613C238.674 67.2071 237.911 66.569 237.355 65.766C236.755 64.9152 236.442 63.895 236.462 62.854C236.438 61.6796 236.788 60.528 237.462 59.566C238.324 58.4565 239.399 57.5306 240.624 56.843C238.822 56.0885 237.305 54.7846 236.288 53.117C235.158 51.318 234.576 49.2291 234.613 47.105C234.613 43.349 235.74 40.453 237.995 38.417C240.25 36.381 243.443 35.3637 247.575 35.365C249.214 35.3446 250.848 35.5553 252.428 35.991L264.299 35.987ZM236.932 76.062C236.899 76.9139 237.101 77.7586 237.515 78.5039C237.929 79.2492 238.539 79.8666 239.28 80.289C241.353 81.3665 243.679 81.864 246.012 81.729C250.374 81.729 253.604 81.077 255.702 79.773C256.659 79.257 257.457 78.4905 258.011 77.5557C258.565 76.6208 258.855 75.5528 258.849 74.466C258.849 72.608 258.275 71.319 257.126 70.599C255.977 69.879 253.817 69.519 250.645 69.519H244.415C242.434 69.3975 240.477 69.9979 238.905 71.209C238.233 71.818 237.707 72.5705 237.365 73.4106C237.024 74.2507 236.876 75.1569 236.932 76.062V76.062ZM239.75 46.976C239.678 47.977 239.822 48.9818 240.173 49.9219C240.525 50.862 241.074 51.7154 241.785 52.424C243.372 53.7355 245.397 54.3957 247.452 54.271C252.524 54.271 255.06 51.808 255.06 46.882C255.06 41.7267 252.493 39.149 247.36 39.149C246.336 39.0819 245.31 39.222 244.342 39.5608C243.373 39.8997 242.483 40.4303 241.725 41.121C240.408 42.4363 239.749 44.388 239.75 46.976V46.976Z" fill="white"/>
<path d="M298.835 35.987V39.274L292.479 40.026C293.968 41.9989 294.761 44.4102 294.733 46.882C294.796 48.3953 294.519 49.9036 293.924 51.296C293.328 52.6885 292.427 53.9299 291.289 54.929C288.993 56.929 285.841 57.929 281.834 57.929C280.868 57.9342 279.904 57.8505 278.954 57.679C276.741 58.8483 275.634 60.32 275.635 62.094C275.613 62.5148 275.71 62.9332 275.915 63.3015C276.12 63.6697 276.424 63.9728 276.793 64.176C278.045 64.7176 279.409 64.9485 280.769 64.849H286.843C290.559 64.849 293.413 65.6317 295.406 67.197C296.411 68.0154 297.206 69.0614 297.726 70.2482C298.246 71.4351 298.475 72.7287 298.396 74.022C298.471 75.7452 298.088 77.4574 297.285 78.9838C296.482 80.5102 295.288 81.7961 293.825 82.71C290.778 84.7027 286.333 85.6993 280.488 85.7C276 85.7 272.54 84.8667 270.109 83.2C268.942 82.4353 267.993 81.3818 267.354 80.1419C266.715 78.9021 266.407 77.5179 266.461 76.124C266.425 74.1314 267.139 72.198 268.461 70.707C269.956 69.0933 271.933 68.0059 274.097 67.607C273.208 67.2011 272.446 66.563 271.889 65.76C271.289 64.9091 270.977 63.8889 270.997 62.848C270.973 61.6736 271.323 60.522 271.997 59.56C272.859 58.4505 273.934 57.5246 275.159 56.837C273.357 56.0828 271.84 54.7788 270.823 53.111C269.693 51.312 269.111 49.2231 269.148 47.099C269.148 43.343 270.275 40.447 272.529 38.411C274.783 36.375 277.977 35.3577 282.11 35.359C283.749 35.3386 285.383 35.5494 286.963 35.985L298.835 35.987ZM271.471 76.062C271.438 76.914 271.64 77.7587 272.054 78.5041C272.468 79.2494 273.078 79.8668 273.819 80.289C275.892 81.3665 278.218 81.8641 280.55 81.729C284.913 81.729 288.143 81.077 290.241 79.773C291.197 79.2568 291.995 78.4902 292.549 77.5554C293.104 76.6206 293.393 75.5527 293.387 74.466C293.387 72.608 292.813 71.319 291.665 70.599C290.517 69.879 288.357 69.519 285.184 69.519H278.954C276.973 69.3976 275.015 69.998 273.443 71.209C272.771 71.8181 272.245 72.5706 271.904 73.4107C271.562 74.2508 271.414 75.157 271.471 76.062V76.062ZM274.289 46.976C274.217 47.977 274.361 48.9818 274.712 49.9219C275.064 50.862 275.613 51.7155 276.324 52.424C277.911 53.7357 279.936 54.3959 281.991 54.271C287.062 54.271 289.598 51.808 289.599 46.882C289.599 41.7267 287.032 39.149 281.899 39.149C280.875 39.082 279.849 39.2221 278.881 39.5609C277.912 39.8998 277.022 40.4304 276.264 41.121C274.947 42.4363 274.289 44.388 274.289 46.976Z" fill="white"/>
<path d="M316.477 70.928C311.405 70.928 307.403 69.3833 304.47 66.294C301.537 63.2047 300.071 58.9153 300.07 53.426C300.07 47.8927 301.432 43.499 304.156 40.245C305.488 38.6434 307.17 37.3699 309.073 36.523C310.976 35.676 313.049 35.2784 315.13 35.361C317.039 35.2699 318.944 35.6028 320.709 36.3357C322.474 37.0687 324.054 38.1835 325.337 39.6C327.845 42.4313 329.099 46.1647 329.099 50.8V54.087H305.456C305.56 58.1163 306.578 61.1743 308.509 63.261C310.44 65.3477 313.159 66.3913 316.665 66.392C320.438 66.3758 324.167 65.5872 327.623 64.075V68.709C325.947 69.45 324.2 70.0215 322.41 70.415C320.455 70.7874 318.467 70.9593 316.477 70.928V70.928ZM315.068 39.713C313.84 39.6577 312.615 39.8698 311.477 40.3346C310.339 40.7994 309.315 41.5058 308.477 42.405C306.715 44.5012 305.695 47.1212 305.577 49.857H323.517C323.517 46.5797 322.787 44.0697 321.326 42.327C320.551 41.4433 319.584 40.7484 318.5 40.2954C317.415 39.8423 316.241 39.6431 315.068 39.713V39.713Z" fill="white"/>
<path d="M350.599 35.361C351.975 35.3473 353.349 35.4729 354.699 35.736L353.978 40.558C352.746 40.2675 351.487 40.11 350.221 40.088C348.857 40.0846 347.509 40.3866 346.277 40.9718C345.044 41.557 343.959 42.4106 343.099 43.47C341.095 45.8091 340.04 48.8136 340.14 51.892V70.3H334.94V35.987H339.23L339.83 42.343H340.08C341.192 40.2877 342.767 38.5191 344.68 37.177C346.422 35.9822 348.487 35.3486 350.599 35.361V35.361Z" fill="white"/>
</svg>
